<mxfile host="app.diagrams.net" agent="Mozilla/5.0 (Macintosh; Intel Mac OS X 10_15_7) AppleWebKit/537.36 (KHTML, like Gecko) Chrome/128.0.0.0 Safari/537.36" version="24.7.8">
  <diagram id="prtHgNgQTEPvFCAcTncT" name="Page-1">
    <mxGraphModel dx="1224" dy="739" grid="1" gridSize="10" guides="1" tooltips="1" connect="1" arrows="1" fold="1" page="1" pageScale="1" pageWidth="827" pageHeight="1169" math="0" shadow="0">
      <root>
        <mxCell id="0" />
        <mxCell id="1" parent="0" />
        <mxCell id="6M0Tjz0h5s1cv5i4jDKu-20" value="" style="rounded=0;whiteSpace=wrap;html=1;fillColor=#d5e8d4;strokeColor=#82b366;sketch=1;curveFitting=1;jiggle=2;" vertex="1" parent="1">
          <mxGeometry x="462.5" y="90" width="255" height="320" as="geometry" />
        </mxCell>
        <mxCell id="6M0Tjz0h5s1cv5i4jDKu-21" style="edgeStyle=orthogonalEdgeStyle;shape=flexArrow;rounded=0;orthogonalLoop=1;jettySize=auto;html=1;exitX=1;exitY=0.5;exitDx=0;exitDy=0;fillColor=#f5f5f5;strokeColor=#666666;sketch=1;curveFitting=1;jiggle=2;" edge="1" parent="1" source="6M0Tjz0h5s1cv5i4jDKu-19" target="6M0Tjz0h5s1cv5i4jDKu-20">
          <mxGeometry relative="1" as="geometry" />
        </mxCell>
        <mxCell id="6M0Tjz0h5s1cv5i4jDKu-19" value="" style="rounded=0;whiteSpace=wrap;html=1;fillColor=#ffe6cc;strokeColor=#d79b00;glass=0;shadow=0;sketch=1;curveFitting=1;jiggle=2;" vertex="1" parent="1">
          <mxGeometry x="72.5" y="90" width="255" height="320" as="geometry" />
        </mxCell>
        <mxCell id="6M0Tjz0h5s1cv5i4jDKu-1" value="首页" style="rounded=1;whiteSpace=wrap;html=1;sketch=1;curveFitting=1;jiggle=2;" vertex="1" parent="1">
          <mxGeometry x="100" y="120" width="60" height="40" as="geometry" />
        </mxCell>
        <mxCell id="6M0Tjz0h5s1cv5i4jDKu-6" value="搜索" style="rounded=1;whiteSpace=wrap;html=1;sketch=1;curveFitting=1;jiggle=2;" vertex="1" parent="1">
          <mxGeometry x="170" y="120" width="60" height="40" as="geometry" />
        </mxCell>
        <mxCell id="6M0Tjz0h5s1cv5i4jDKu-7" value="社区" style="rounded=1;whiteSpace=wrap;html=1;sketch=1;curveFitting=1;jiggle=2;" vertex="1" parent="1">
          <mxGeometry x="240" y="120" width="60" height="40" as="geometry" />
        </mxCell>
        <mxCell id="6M0Tjz0h5s1cv5i4jDKu-8" value="广告通用view" style="rounded=1;whiteSpace=wrap;html=1;sketch=1;curveFitting=1;jiggle=2;" vertex="1" parent="1">
          <mxGeometry x="100" y="180" width="90" height="40" as="geometry" />
        </mxCell>
        <mxCell id="6M0Tjz0h5s1cv5i4jDKu-10" value="RPC层" style="rounded=1;whiteSpace=wrap;html=1;sketch=1;curveFitting=1;jiggle=2;" vertex="1" parent="1">
          <mxGeometry x="100" y="240" width="200" height="40" as="geometry" />
        </mxCell>
        <mxCell id="6M0Tjz0h5s1cv5i4jDKu-11" value="Native组件" style="rounded=1;whiteSpace=wrap;html=1;sketch=1;curveFitting=1;jiggle=2;" vertex="1" parent="1">
          <mxGeometry x="210" y="180" width="90" height="40" as="geometry" />
        </mxCell>
        <mxCell id="6M0Tjz0h5s1cv5i4jDKu-12" value="首页" style="rounded=1;whiteSpace=wrap;html=1;sketch=1;curveFitting=1;jiggle=2;" vertex="1" parent="1">
          <mxGeometry x="490" y="120" width="60" height="40" as="geometry" />
        </mxCell>
        <mxCell id="6M0Tjz0h5s1cv5i4jDKu-13" value="搜索" style="rounded=1;whiteSpace=wrap;html=1;sketch=1;curveFitting=1;jiggle=2;" vertex="1" parent="1">
          <mxGeometry x="560" y="120" width="60" height="40" as="geometry" />
        </mxCell>
        <mxCell id="6M0Tjz0h5s1cv5i4jDKu-14" value="社区" style="rounded=1;whiteSpace=wrap;html=1;sketch=1;curveFitting=1;jiggle=2;" vertex="1" parent="1">
          <mxGeometry x="630" y="120" width="60" height="40" as="geometry" />
        </mxCell>
        <mxCell id="6M0Tjz0h5s1cv5i4jDKu-15" value="广告通用view" style="rounded=1;whiteSpace=wrap;html=1;sketch=1;curveFitting=1;jiggle=2;" vertex="1" parent="1">
          <mxGeometry x="490" y="180" width="200" height="40" as="geometry" />
        </mxCell>
        <mxCell id="6M0Tjz0h5s1cv5i4jDKu-16" value="广告js core层" style="rounded=1;whiteSpace=wrap;html=1;sketch=1;curveFitting=1;jiggle=2;" vertex="1" parent="1">
          <mxGeometry x="490" y="240" width="200" height="40" as="geometry" />
        </mxCell>
        <mxCell id="6M0Tjz0h5s1cv5i4jDKu-18" value="底层jsk" style="rounded=1;whiteSpace=wrap;html=1;sketch=1;curveFitting=1;jiggle=2;" vertex="1" parent="1">
          <mxGeometry x="490" y="300" width="200" height="40" as="geometry" />
        </mxCell>
        <mxCell id="6M0Tjz0h5s1cv5i4jDKu-22" value="端侧能力：网络/重力感应" style="rounded=1;whiteSpace=wrap;html=1;sketch=1;curveFitting=1;jiggle=2;" vertex="1" parent="1">
          <mxGeometry x="100" y="300" width="200" height="40" as="geometry" />
        </mxCell>
        <mxCell id="6M0Tjz0h5s1cv5i4jDKu-23" value="端侧能力：网络/重力感应" style="rounded=1;whiteSpace=wrap;html=1;sketch=1;curveFitting=1;jiggle=2;" vertex="1" parent="1">
          <mxGeometry x="490" y="360" width="200" height="40" as="geometry" />
        </mxCell>
      </root>
    </mxGraphModel>
  </diagram>
</mxfile>
